<svg width="28" height="32" viewBox="0 0 28 32" fill="none" xmlns="http://www.w3.org/2000/svg">
<path d="M2.44223 10.3654C1.89087 10.3654 1.42306 10.5576 1.03852 10.9422C0.65397 11.3267 0.461639 11.7882 0.461639 12.3267V20.5959C0.461639 21.148 0.653912 21.6154 1.03852 22C1.42306 22.3845 1.89087 22.5768 2.44223 22.5768C2.99318 22.5768 3.45815 22.3846 3.83674 22C4.21457 21.6154 4.40401 21.148 4.40401 20.5959V12.3267C4.40401 11.7881 4.21174 11.3267 3.82713 10.9422C3.44253 10.5576 2.9808 10.3654 2.44223 10.3654Z" fill="#0D0C22"/>
<path d="M18.3656 2.94205L19.731 0.423242C19.8206 0.256486 19.7887 0.128613 19.6351 0.0386963C19.4682 -0.0388377 19.3401 0.00045004 19.2505 0.153782L17.866 2.69273C16.6477 2.1541 15.3592 1.88429 14.0005 1.88429C12.6414 1.88429 11.3528 2.15416 10.135 2.69273L8.75044 0.153782C8.66047 0.00045004 8.53231 -0.0384905 8.3659 0.0386963C8.21187 0.129018 8.17999 0.256486 8.26997 0.423242L9.63543 2.94205C8.25087 3.64813 7.14815 4.63148 6.32768 5.89425C5.50721 7.1577 5.0968 8.53839 5.0968 10.0387H22.8848C22.8848 8.53873 22.4744 7.15799 21.6539 5.89425C20.8334 4.63148 19.7371 3.64813 18.3656 2.94205ZM10.4714 6.60571C10.3237 6.75372 10.1474 6.82737 9.94238 6.82737C9.73698 6.82737 9.5642 6.75372 9.42325 6.60571C9.2823 6.45839 9.21183 6.28273 9.21183 6.07703C9.21183 5.87203 9.2823 5.69601 9.42325 5.54835C9.5642 5.40104 9.73738 5.32738 9.94238 5.32738C10.1474 5.32738 10.3237 5.40104 10.4714 5.54835C10.6187 5.69636 10.6927 5.87203 10.6927 6.07703C10.6923 6.28238 10.6184 6.45839 10.4714 6.60571ZM18.5769 6.60571C18.4357 6.75372 18.2625 6.82737 18.0579 6.82737C17.8524 6.82737 17.6761 6.75372 17.5287 6.60571C17.3811 6.45839 17.3075 6.28273 17.3075 6.07703C17.3075 5.87203 17.3811 5.69601 17.5287 5.54835C17.6761 5.40104 17.8524 5.32738 18.0579 5.32738C18.2629 5.32738 18.4356 5.40104 18.5769 5.54835C18.718 5.69636 18.7884 5.87203 18.7884 6.07703C18.7884 6.28238 18.718 6.45839 18.5769 6.60571Z" fill="#0D0C22"/>
<path d="M5.17307 23.5381C5.17307 24.1284 5.37807 24.6281 5.78813 25.0382C6.19854 25.4483 6.69823 25.6533 7.28812 25.6533H8.71128L8.73077 30.0191C8.73077 30.5704 8.92305 31.0386 9.30759 31.4232C9.69214 31.8078 10.1539 32 10.6922 32C11.2432 32 11.7113 31.8078 12.0959 31.4232C12.4805 31.0386 12.6727 30.5705 12.6727 30.0191V25.6537H15.3265V30.0191C15.3265 30.5704 15.5187 31.0386 15.9033 31.4232C16.2879 31.8078 16.7556 32 17.307 32C17.858 32 18.3261 31.8078 18.7107 31.4232C19.0953 31.0386 19.2875 30.5705 19.2875 30.0191V25.6537H20.7299C21.3067 25.6537 21.8 25.4486 22.2108 25.0385C22.6208 24.6285 22.8259 24.1288 22.8259 23.5385V10.7303H5.17307V23.5381Z" fill="#0D0C22"/>
<path d="M25.5578 10.3654C25.0192 10.3654 24.5578 10.5548 24.1732 10.9326C23.7886 11.3112 23.5964 11.7761 23.5964 12.3267V20.5959C23.5964 21.148 23.7886 21.6154 24.1732 22C24.5578 22.3846 25.0195 22.5768 25.5578 22.5768C26.1088 22.5768 26.5769 22.3846 26.9615 22C27.3461 21.6154 27.5383 21.148 27.5383 20.5959V12.3267C27.5383 11.7761 27.3461 11.3112 26.9615 10.9326C26.5769 10.5548 26.1088 10.3654 25.5578 10.3654Z" fill="#0D0C22"/>
</svg>
