<svg width="28" height="32" viewBox="0 0 28 32" fill="none" xmlns="http://www.w3.org/2000/svg">
<path d="M20.1582 0C20.2326 0 20.3071 0 20.3858 0C20.5685 2.25671 19.7071 3.94291 18.6602 5.16401C17.6331 6.37667 16.2265 7.5528 13.9515 7.37435C13.7997 5.14996 14.6625 3.58881 15.708 2.37053C16.6775 1.23515 18.4551 0.224828 20.1582 0Z" fill="#0D0C22"/>
<path d="M27.0449 23.4889C27.0449 23.5114 27.0449 23.5311 27.0449 23.5521C26.4056 25.4885 25.4936 27.148 24.3807 28.6881C23.3648 30.0862 22.1198 31.9677 19.8968 31.9677C17.9759 31.9677 16.7 30.7326 14.7314 30.6989C12.6489 30.6651 11.5037 31.7317 9.5997 32C9.3819 32 9.1641 32 8.95051 32C7.55236 31.7977 6.42401 30.6904 5.60198 29.6928C3.17806 26.7447 1.30496 22.9367 0.956482 18.0635C0.956482 17.5858 0.956482 17.1094 0.956482 16.6317C1.10403 13.144 2.79866 10.3084 5.05116 8.93414C6.23993 8.20345 7.87415 7.58096 9.69385 7.85918C10.4737 7.98003 11.2705 8.24701 11.9688 8.51118C12.6307 8.76552 13.4583 9.21658 14.2424 9.19269C14.7735 9.17723 15.3019 8.90041 15.8373 8.7051C17.4054 8.13881 18.9427 7.48962 20.969 7.79454C23.4041 8.1627 25.1325 9.24468 26.2004 10.914C24.1404 12.2251 22.5118 14.2007 22.7901 17.5745C23.0374 20.6392 24.8191 22.4322 27.0449 23.4889Z" fill="#0D0C22"/>
</svg>
