<svg width="24" height="24" viewBox="0 0 24 24" fill="none" xmlns="http://www.w3.org/2000/svg">
<path d="M7.5 21.5625C8.22487 21.5625 8.8125 20.9749 8.8125 20.25C8.8125 19.5251 8.22487 18.9375 7.5 18.9375C6.77513 18.9375 6.1875 19.5251 6.1875 20.25C6.1875 20.9749 6.77513 21.5625 7.5 21.5625Z" fill="white"/>
<path d="M17.25 21.5625C17.9749 21.5625 18.5625 20.9749 18.5625 20.25C18.5625 19.5251 17.9749 18.9375 17.25 18.9375C16.5251 18.9375 15.9375 19.5251 15.9375 20.25C15.9375 20.9749 16.5251 21.5625 17.25 21.5625Z" fill="white"/>
<path d="M3.96429 6.75H20.7857L18.3108 15.4121C18.2213 15.7255 18.0321 16.0012 17.7718 16.1975C17.5116 16.3938 17.1945 16.5 16.8685 16.5H7.88145C7.55549 16.5 7.23839 16.3938 6.97816 16.1975C6.71792 16.0012 6.52872 15.7255 6.43917 15.4121L3.04827 3.54396C3.0035 3.38725 2.90889 3.24939 2.77878 3.15124C2.64866 3.05309 2.49011 3 2.32713 3H0.75" stroke="white" stroke-width="1.5" stroke-linecap="round" stroke-linejoin="round"/>
</svg>
